<svg xmlns:dc="http://purl.org/dc/elements/1.1/" xmlns:cc="http://creativecommons.org/ns#" xmlns:rdf="http://www.w3.org/1999/02/22-rdf-syntax-ns#" xmlns:svg="http://www.w3.org/2000/svg" xmlns="http://www.w3.org/2000/svg" xmlns:sodipodi="http://sodipodi.sourceforge.net/DTD/sodipodi-0.dtd" xmlns:inkscape="http://www.inkscape.org/namespaces/inkscape" version="1.1" id="svg2" xml:space="preserve" sodipodi:docname="5811.eps" viewBox="0 0 3866.67 2666.67"><metadata id="metadata8"><rdf:RDF><cc:Work rdf:about=""><dc:format>image/svg+xml</dc:format><dc:type rdf:resource="http://purl.org/dc/dcmitype/StillImage"/></cc:Work></rdf:RDF></metadata><defs id="defs6"/><sodipodi:namedview pagecolor="#ffffff" bordercolor="#666666" borderopacity="1" objecttolerance="10" gridtolerance="10" guidetolerance="10" inkscape:pageopacity="0" inkscape:pageshadow="2" inkscape:window-width="640" inkscape:window-height="480" id="namedview4"/><g id="g10" inkscape:groupmode="layer" inkscape:label="ink_ext_XXXXXX" transform="matrix(1.3333333,0,0,-1.3333333,0,2666.6667)"><g id="g12" transform="scale(0.1)"><path d="M 29000,0 H 0 V 20000 H 29000 V 0" style="fill:#ffffff;fill-opacity:1;fill-rule:nonzero;stroke:none" id="path14"/><path d="M 26785.7,5130.6 H 3447.63 c -36.64,0 -66.35,-30.3 -66.35,-67.7 v 0 c 0,-37.4 29.71,-67.7 66.35,-67.7 H 26785.7 c 36.6,0 66.3,30.3 66.3,67.7 v 0 c 0,37.4 -29.7,67.7 -66.3,67.7" style="fill:#184655;fill-opacity:1;fill-rule:nonzero;stroke:none" id="path16"/><path d="m 22181.7,6144.8 c 0,0 -147.9,-603.2 -258.2,-697.9 -110.2,-94.7 -469.7,-275.9 -375.6,-295.4 94,-19.5 790.2,-35.7 771.1,80.4 -19.1,116.2 -39.1,190.2 -39.1,190.2 l 184.1,430.9 -282.3,291.8" style="fill:#f47458;fill-opacity:1;fill-rule:nonzero;stroke:none" id="path18"/><path d="m 21501.1,5126.8 c 169.7,-16.9 665.5,-34.8 809.9,-16.3 0,0 27.1,5.3 8,121.4 -4.7,28.4 -9.4,54.3 -13.8,77.2 -131,-34.4 -416.3,38.8 -529.4,53.8 -122.7,-58.7 -261.1,-146.5 -305.7,-153.9 -64.7,-10.6 -64.6,-72.7 31,-82.2" style="fill:#13375b;fill-opacity:1;fill-rule:nonzero;stroke:none" id="path20"/><path d="m 23805.1,5639.1 c 0,0 15.5,-152.6 15.5,-219.9 0,-67.2 -62.6,-256.9 -33.6,-285.9 29,-29 858.2,-25.4 858.2,1.9 0,27.3 -146.5,110.1 -345.7,166.9 -199.1,56.9 -266.8,277.5 -215.1,404.2 l -279.3,-67.2" style="fill:#f47458;fill-opacity:1;fill-rule:nonzero;stroke:none" id="path22"/><path d="m 24658.6,5133.3 c 0,25.4 -136,103.6 -312.1,157.4 -187.7,-63.4 -448.3,-11.1 -546,7.6 -29.9,-78.2 -39.4,-152.3 -24.1,-167.7 29.1,-29.1 882.2,-24.6 882.2,2.7" style="fill:#13375b;fill-opacity:1;fill-rule:nonzero;stroke:none" id="path24"/><path d="m 22905,8189.2 -148.7,-131.9 c 0,0 -167.4,-453.2 -177.1,-483.2 -13.6,-41.6 -555.9,-1789.2 -555.9,-1789.2 l 377.8,-135.9 c 0,0 374.6,729.8 436.7,983.2 62.1,253.5 682.8,1313.9 682.8,1313.9 l -615.6,243.1" style="fill:#86b1f2;fill-opacity:1;fill-rule:nonzero;stroke:none" id="path26"/><path d="M 23562,7920.3 23743,5604 h 419 c 0,0 150,1733.5 98.3,2342.1 l -698.3,-25.8" style="fill:#86b1f2;fill-opacity:1;fill-rule:nonzero;stroke:none" id="path28"/><path d="m 21317,9534.1 c 0,0 127.3,-622.4 239.1,-734.2 63.6,-63.6 236.9,-321 370.3,-321 106.2,0 169.4,-7.7 187.2,-7.7 41.4,0 -5.2,-253.5 -44,-292.3 0,0 -12.9,-38.8 -90.5,-38.8 -77.6,0 -488.8,281.9 -613,406.1 -124.1,124.1 -354.3,801.7 -354.3,801.7 l 305.2,186.2" style="fill:#f7a491;fill-opacity:1;fill-rule:nonzero;stroke:none" id="path30"/><path d="m 23360.2,10315.2 c 0,0 -160.3,-186.2 -372.4,-501.7 -212.1,-315.6 -754.1,-1191.6 -812.1,-1249.6 -14.1,-14.1 -58,-42.3 -58,-42.3 0,0 -76.1,16.4 -117.1,1.3 -40,-14.8 -93.9,-92.3 -74.9,-111.2 18.9,-19 92.1,44.4 114.5,43.7 22.3,-0.7 24.3,-0.6 24.3,-12.7 0,-12.1 -90.6,-62.1 -116.4,-69 -25.9,-6.9 -94,-111.6 -81.1,-146.5 13,-34.9 12.1,-46.6 44.9,-46.6 32.7,0 37.9,-25.8 65.5,-25.8 27.6,0 34.5,34.4 65.5,20.6 31.1,-13.7 39.7,-10.3 136.2,48.3 96.6,58.6 276.8,276.8 367.3,367.3 90.5,90.5 917.3,991.4 917.3,991.4 l -103.5,732.8" style="fill:#f47458;fill-opacity:1;fill-rule:nonzero;stroke:none" id="path32"/><path d="m 23711.1,11702.4 c 0,0 -197.4,71.5 -325,-128.5 -127.6,-200 -58.6,-181 -120.7,-281 -62.1,-100 -224.1,-79.3 -224.1,-234.5 0,-155.2 72.4,-179.3 72.4,-179.3 0,0 -65.6,-120.7 6.9,-244.9 72.4,-124.1 253,-231 404.1,-213.8 0,0 226.9,-124.4 454.5,-65.6 227.6,58.7 148.3,58.7 241.4,58.7 93.2,0 344.9,127.6 303.5,313.8 0,0 153.4,182.2 4.6,331.1 -148.9,148.8 -177,300 -263.2,500 -86.3,200 -450.9,192.3 -554.4,144" style="fill:#184655;fill-opacity:1;fill-rule:nonzero;stroke:none" id="path34"/><path d="m 20903.2,10385.7 c 29.3,-10.1 149.2,-95.5 219,-230 69.9,-134.5 254.3,-696.6 254.3,-696.6 l -303.6,-111.2 -169.7,1037.8" style="fill:#50bfa5;fill-opacity:1;fill-rule:nonzero;stroke:none" id="path36"/><path d="m 19375.5,5751.2 c 0,0 -50,-177.6 -89.7,-217.3 -39.6,-39.7 -171.1,-193.5 -138.7,-269.8 32.3,-76.3 833.4,-185.6 863.8,-155.2 30.4,30.4 -138.4,159 -234.1,237.9 -95.7,78.9 -164.2,175.9 -124.1,293.6 40.1,117.7 40.1,106 40.1,117.7 0,11.6 -317.3,-6.9 -317.3,-6.9" style="fill:#f7a491;fill-opacity:1;fill-rule:nonzero;stroke:none" id="path38"/><path d="m 20010.9,5108.9 c 36.3,27.2 -76.3,148.7 -239.4,242.4 -68.3,0.1 -159.4,4.7 -236.5,24 -120.7,30.1 -213.3,134.8 -240.8,168.7 -2.5,-3.5 -196.7,-190.5 -158.8,-279.9 32.3,-76.3 803.1,-209.5 875.5,-155.2" style="fill:#355389;fill-opacity:1;fill-rule:nonzero;stroke:none" id="path40"/><path d="m 20704.8,5664.9 c 0,0 14.8,-182.4 -15.3,-229.7 -30,-47.4 -135.2,-235.1 -76.6,-293.6 52.9,-52.9 786.7,-18.9 809.7,17.4 23.1,36.2 -102.5,144.6 -213.1,200.7 -110.6,56.1 -198.7,135.8 -185.2,259.4 13.4,123.6 16,112.2 13.4,123.6 -2.5,11.4 -332.9,-77.8 -332.9,-77.8" style="fill:#f7a491;fill-opacity:1;fill-rule:nonzero;stroke:none" id="path42"/><path d="m 21513.8,5129.7 c 38.3,24.3 -130.9,177.3 -310.5,233.2 -66.7,-14.8 -156.5,-30.2 -236,-28.2 -124.4,3.1 -237.6,85 -271.8,112.2 -1.7,-4 -168.9,-246.1 -93.9,-307.9 58.5,-48.2 854.1,-46.1 912.2,-9.3" style="fill:#355389;fill-opacity:1;fill-rule:nonzero;stroke:none" id="path44"/><path d="m 20758.3,8247.9 -473.8,-1372.9 -543.4,-1271 -455.3,114.4 c 0,0 164.3,881 318.7,1157.7 116.7,209.4 198.3,1411.2 198.3,1411.2 l 955.5,-39.4" style="fill:#f47458;fill-opacity:1;fill-rule:nonzero;stroke:none" id="path46"/><path d="M 20530.8,8016.8 20695,5604 h 387.9 c 0,0 169.5,2527.9 107.4,2768.4 -62.1,240.5 -708.4,186.2 -708.4,186.2 l 48.9,-541.8" style="fill:#b75742;fill-opacity:1;fill-rule:nonzero;stroke:none" id="path48"/><path d="m 20903.2,10385.7 c 0,0 -500,149.8 -577,140.1 -84.3,-10.6 -289.1,-119.1 -289.1,-119.1 0,0 12.6,-868 -23.6,-1113.4 -36.2,-245.4 -289.7,-1031.6 -289.7,-1031.6 0,0 356.9,-207 957,-139.7 600,67.2 558.6,212.1 558.6,212.1 0,0 -56.9,869 -113.8,1251.8 -56.9,382.8 -222.4,799.8 -222.4,799.8" style="fill:#96d9c9;fill-opacity:1;fill-rule:nonzero;stroke:none" id="path50"/><path d="m 19841.1,9582.4 c 0,0 0,-441.4 0,-534.5 0,-93.1 106.9,-723.5 237.9,-939.4 131,-215.8 308.7,-456.6 345.4,-470.4 36.8,-13.8 116.7,-64.4 158.1,-23 41.4,41.3 74.1,22.4 125.8,44.8 51.8,22.4 -6.9,96.5 -79.3,169 -72.4,72.4 -87.9,89.6 -75.8,101.7 12,12.1 70.7,-55.2 101.7,-44.8 31,10.3 -19,118.9 -100,156.9 -81.1,37.9 -210.4,112.1 -222.4,151.7 -12.1,39.7 -12.1,29.3 -12.1,39.7 0,10.3 -91.4,636.2 -91.4,758.6 0,122.5 -36.2,520.8 -36.2,520.8 l -351.7,68.9" style="fill:#f7a491;fill-opacity:1;fill-rule:nonzero;stroke:none" id="path52"/><path d="m 24296.5,10253.2 c 0,0 -266.4,69.8 -569,86.6 -156.7,8.7 -367.3,-24.6 -367.3,-24.6 0,0 -191.4,-429.3 -248.3,-781.1 -56.9,-351.7 -367.2,-1479.4 -367.2,-1479.4 0,0 631.1,-486.2 1551.8,-165.5 v 2364" style="fill:#f7a491;fill-opacity:1;fill-rule:nonzero;stroke:none" id="path54"/><path d="m 24296.5,10253.2 c 0,0 -72.5,-72.7 -150.1,-348.3 -77.6,-275.6 -117.2,-920.8 -184.4,-988 -67.3,-67.3 -506.9,-417.3 -586.2,-405.2 -79.4,12 -257,218.9 -312.1,218.9 -55.2,0 -48.3,-50 -20.7,-77.5 27.6,-27.6 61.2,-59.5 44.8,-75.9 -16.4,-16.4 -16.4,-16.4 -16.4,-16.4 0,0 -245.7,64.7 -287.1,40.5 -41.3,-24.1 39.7,-81 39.7,-122.4 0,-41.4 -10.1,-40.6 -5.2,-86.2 5,-45.6 16.4,-81.9 38,-103.5 21.5,-21.5 293.1,-100 558.6,-63.8 265.5,36.3 589.7,163.8 829.4,460.4 239.6,296.6 191.6,1228.7 186.2,1321.6 -13.8,235.4 -134.5,245.8 -134.5,245.8" style="fill:#f47458;fill-opacity:1;fill-rule:nonzero;stroke:none" id="path56"/><path d="m 23579.2,10637.7 c 0,0 8.3,-274.7 -17.5,-300.5 -25.8,-25.8 -61.8,-68.5 -23.9,-134 38,-65.6 202.6,-23.8 279.4,13.7 73.6,36 121.1,103 121.1,103 l -38.4,435 -320.7,-117.2" style="fill:#f47458;fill-opacity:1;fill-rule:nonzero;stroke:none" id="path58"/><path d="m 23688.7,10523.9 c 52.9,18.5 145.3,54.2 216.6,170.1 l -5.4,60.9 -320.7,-117.2 c 0,0 2,-67 1,-138 44.9,1.9 83.3,15.3 108.5,24.2" style="fill:#b75742;fill-opacity:1;fill-rule:nonzero;stroke:none" id="path60"/><path d="m 20085.5,10428 c -47,-5.9 -174.6,-52.4 -219.4,-204.1 -44.9,-151.8 -163,-582.8 -142.3,-793.2 0,0 503.5,-65.5 503.5,-44.8 0,20.7 110.1,560.3 55.2,796.6 -48,206 -115.3,255.7 -197,245.5" style="fill:#50bfa5;fill-opacity:1;fill-rule:nonzero;stroke:none" id="path62"/><path d="m 19247.4,11603.4 c 0,0 -26.4,-122.1 101,-165 127.4,-43 206.5,405.2 278.9,493.8 72.5,88.6 292.2,112.7 406.4,-64.1 62.8,-97.3 82.4,-139.6 87.4,-158 4,-15 -1.8,-14.1 -1.8,-14.1 l -34.4,-64.4 c 0,0 -110.5,67.1 -152.3,-55.4 -41.7,-122.5 81.3,-323 -24.1,-489.4 -105.4,-166.4 -298.7,-48.7 -298.7,-48.7 -160.4,-107.8 -344.9,56.7 -404.2,212.4 -59.3,155.7 41.8,352.9 41.8,352.9" style="fill:#f7cc7f;fill-opacity:1;fill-rule:nonzero;stroke:none" id="path64"/><path d="m 20504.7,10983.1 -17.4,-180.2 -161.1,-277.1 c 0,0 317.7,-384.5 415.8,-292.6 21.9,20.5 77.2,427.5 77.2,427.5 l -314.5,322.4" style="fill:#f7a491;fill-opacity:1;fill-rule:nonzero;stroke:none" id="path66"/><path d="m 20487.3,10802.9 -33.6,-61.5 c 99,-88.9 226.1,-168.9 346.2,-214.9 11.2,74.7 19.3,134.2 19.3,134.2 l -314.5,322.4 -17.4,-180.2" style="fill:#f48c7f;fill-opacity:1;fill-rule:nonzero;stroke:none" id="path68"/><path d="m 20831.9,11574.7 c 0,0 84,-76.2 114.8,-119.2 183.7,-255.9 34.9,-760.6 -61,-802.6 -145.2,-63.5 -334.1,21.9 -547.1,166.3 -212.9,144.4 -280.2,378.4 -85.2,581.7 194.9,203.4 578.5,173.8 578.5,173.8" style="fill:#f7a491;fill-opacity:1;fill-rule:nonzero;stroke:none" id="path70"/><path d="m 20125.3,11619.8 58,55.5 c 227.5,0 408.9,137.1 664.2,-0.7 168.5,-91.1 99.2,-219.1 99.2,-219.1 -624,0 -398.8,-491.8 -475.3,-687.5 -76.5,-195.7 -553.6,227.5 -346.1,851.8" style="fill:#f7cc7f;fill-opacity:1;fill-rule:nonzero;stroke:none" id="path72"/><path d="m 20561.8,11065.9 c 0,0 -8.8,161.4 -107.8,129.5 -99,-32 -21.8,-275.2 60.3,-266.7 82.2,8.6 47.5,137.2 47.5,137.2" style="fill:#f7a491;fill-opacity:1;fill-rule:nonzero;stroke:none" id="path74"/><path d="m 23956.4,11065.5 c 0,0 7.8,161.4 107,130.1 99.2,-31.4 23.6,-275 -58.6,-267 -82.3,8 -48.4,136.9 -48.4,136.9" style="fill:#f47458;fill-opacity:1;fill-rule:nonzero;stroke:none" id="path76"/><path d="m 20109,11741.4 c 0,0 94,-58.3 131.9,-53.4 37.9,4.8 -58.1,-118.1 -108.9,-130.9 -50.9,-12.7 -33,36.3 -43.7,53 -10.8,16.8 -50.3,3.8 -59.5,16.1 -20.8,28.3 35.8,109.8 80.2,115.2" style="fill:#50bfa5;fill-opacity:1;fill-rule:nonzero;stroke:none" id="path78"/><path d="m 21862.4,8189.2 c 0,0 87,134.5 115.4,141 28.5,6.5 -6.4,-91.8 -6.4,-109.9 0,-18.1 51.7,138.3 80.1,138.3 28.5,0 32.4,-20.7 20.7,-60.7 -11.6,-40.1 -38.8,-91.9 -25.8,-91.9 12.9,0 49.8,174 71.1,152.6 21.3,-21.3 13.1,-163.5 -27.2,-203.8 -40.3,-40.3 -158.8,-15.2 -227.9,34.4" style="fill:#f7a491;fill-opacity:1;fill-rule:nonzero;stroke:none" id="path80"/><path d="m 23166.5,9527.7 c 14.6,15.4 56.9,75.8 129,51.8 62.4,-20.7 87,-85 104.7,-114.1 -5.1,29.3 -16.9,79.8 -3.1,137 36.8,152.2 223.1,138.5 219.8,-2.7 -1.3,-55.4 -21.3,-89.2 -49.4,-148.7 11.5,12.5 45.8,54.1 92.9,78.4 137.5,70.8 211.4,-101.8 114.1,-193.5 -50.3,-47.4 -114.3,-48.6 -153.3,-53.2 33.9,-9.5 54.1,-12.3 87.3,-33.4 171.8,-108.9 -67.2,-402.9 -196.4,-119.8 -0.2,0.3 -0.8,0.3 -1.3,0.5 5.9,-40.1 17.3,-89.2 0.8,-145.9 -44.7,-153.6 -249,-126.6 -213.6,47.3 11.1,54.3 47.2,112 49.4,116.4 -24.6,-26.3 -61,-69.9 -113.5,-90.4 -135.3,-52.9 -199.8,138.1 -75.2,218.7 55.8,36 111.2,30.8 130.8,36 -46.3,11.2 -89.8,24.1 -121.4,62.9 -42.7,52.5 -19.8,104.2 -21.1,111.3 6.5,13.8 13,27.6 19.5,41.4 z m 242.3,-296.5 c 35.3,-18.4 79.8,5.2 97.8,39.2 24.9,47.1 9.2,95.5 -26.1,112.1 -36.8,17.3 -79.3,0.7 -101.8,-44.1 -20.8,-41.5 -6.6,-91.8 30.1,-107.2" style="fill:#fae0b2;fill-opacity:1;fill-rule:nonzero;stroke:none" id="path82"/><path d="m 23644.7,11592.9 c 0,0 -155.1,3.4 -234.5,-117.3 -79.3,-120.7 -165.5,-465.5 -34.4,-703.4 131,-238 298.3,-179.4 367.2,-155.2 69,24.1 205.2,77.6 274.2,300 68.9,222.4 18.9,722.4 -372.5,675.9" style="fill:#f47458;fill-opacity:1;fill-rule:nonzero;stroke:none" id="path84"/><path d="m 24020.8,13717.7 201.5,40.1 49.1,203.5 229.2,29 -14.7,233.1 257.7,44.2 13,216.2 240.8,83 31.7,-91.2 -180,-62 -13.7,-228.2 -247.7,-42.5 14.9,-236.9 -252.9,-32 -47.9,-198.7 -186.8,-37.2 -4.2,-137.2 -96.4,3.2 6.4,213.6" style="fill:#50bfa5;fill-opacity:1;fill-rule:nonzero;stroke:none" id="path86"/><path d="m 22023,13579.6 120.1,219.8 -113,223.7 c -12.9,25.4 9.1,54.6 37.1,49.3 l 246.2,-46.3 177.8,176.6 c 20.2,20.1 54.7,8.3 58.4,-20 l 32,-248.5 222.9,-114.4 c 25.4,-13.1 24.8,-49.6 -1,-61.8 l -226.4,-107.3 -40,-247.3 c -4.5,-28.2 -39.4,-38.9 -59,-18.1 l -172,182.1 -247.6,-38.3 c -28.2,-4.4 -49.2,25.4 -35.5,50.5" style="fill:#f47458;fill-opacity:1;fill-rule:nonzero;stroke:none" id="path88"/><path d="m 4281.86,13484.4 147.63,202.4 -83.05,236.4 c -9.46,26.9 16.06,53 43.18,44.1 l 238.14,-77.8 199.14,152 c 22.69,17.4 55.39,1.1 55.33,-27.4 l -0.46,-250.5 206.14,-142.5 c 23.48,-16.2 18.16,-52.3 -8.99,-61.1 l -238.43,-76.9 -71.74,-240.1 c -8.17,-27.3 -44.15,-33.4 -60.88,-10.3 l -146.9,202.9 -250.48,-5.9 c -28.53,-0.7 -45.45,31.6 -28.63,54.7" style="fill:#f7cc7f;fill-opacity:1;fill-rule:nonzero;stroke:none" id="path90"/><path d="m 9652.91,14474.5 c -9.65,138.9 95.2,259.4 234.17,269.1 138.92,9.6 259.42,-95.2 269.12,-234.2 9.6,-139 -95.2,-259.4 -234.19,-269.1 -138.97,-9.6 -259.45,95.2 -269.1,234.2" style="fill:#f7cc7f;fill-opacity:1;fill-rule:nonzero;stroke:none" id="path92"/><path d="m 10080.7,13762.2 c -15.1,73.2 -24.2,151.5 -49.2,222 -21.4,60.7 -116.08,42.2 -111.29,-23 5.88,-79.7 30.79,-160.6 47.5,-238.8 6.77,-31.6 48.59,-46.3 76.39,-36.6 33.8,11.9 43.1,44.6 36.6,76.4 v 0" style="fill:#f7cc7f;fill-opacity:1;fill-rule:nonzero;stroke:none" id="path94"/><path d="m 10512.9,14074.7 c -83.6,49.3 -156.4,110.4 -233.6,168.6 -60.2,45.6 -125.2,-32.8 -75.6,-86.9 71.1,-77.7 164.6,-138.5 254.8,-191.7 28.6,-16.8 68.3,-0.3 82.2,27.8 15.6,31.6 0.9,65.3 -27.8,82.2 v 0" style="fill:#f7cc7f;fill-opacity:1;fill-rule:nonzero;stroke:none" id="path96"/><path d="m 10354.6,14526.2 c -18.9,-15.2 -22.7,-37 -11,-58.2 28.3,-51.2 100,-48.7 151,-47 53.2,1.8 106.4,12.6 156.7,29.8 74.3,25.4 34,140.7 -40.6,115.3 -145.9,-49.8 -201.1,4.2 -256.1,-39.9" style="fill:#f7cc7f;fill-opacity:1;fill-rule:nonzero;stroke:none" id="path98"/><path d="m 10274.3,15016.7 c -73.4,-107.4 -133.4,-143.7 -124.1,-202.8 5.5,-34.6 32.8,-51.1 66.2,-43.5 39.4,8.9 60.9,50.8 84.5,80.1 22.7,28.1 44.9,56.4 65.2,86.3 18.3,27.2 20.9,62.4 -6,85.9 -22.5,19.6 -67.2,21.3 -85.8,-6 v 0" style="fill:#f7cc7f;fill-opacity:1;fill-rule:nonzero;stroke:none" id="path100"/><path d="m 9988.27,15035.3 c -23.47,65.1 -28.62,88.8 -59.07,119 -26.46,26.3 -82.32,9.6 -86.03,-29.2 -4.3,-45.2 5.16,-61.9 29.83,-130.3 11.19,-31.1 46.61,-48.4 77.91,-37.4 31.04,10.9 48.59,46.8 37.36,77.9 v 0" style="fill:#f7cc7f;fill-opacity:1;fill-rule:nonzero;stroke:none" id="path102"/><path d="m 9679.34,14877.8 c -105.83,80.4 -127.36,103 -168.93,98.6 -24.37,-2.5 -51.74,-25.9 -46.42,-53.3 9.89,-50.8 39.46,-64.6 136.77,-135.6 26.1,-19.1 61.94,-20 84.44,5.8 20.16,23.2 19.99,64.8 -5.86,84.5 v 0" style="fill:#f7cc7f;fill-opacity:1;fill-rule:nonzero;stroke:none" id="path104"/><path d="m 9254.22,14509.2 c -41.69,-22.1 -24.94,-94.2 20.22,-100.1 43.3,-5.7 60.02,1.3 270.12,39.6 32.45,6 59.18,29.7 56.71,65.2 -2.1,30.2 -32.49,62.6 -65.17,56.7 -218.19,-39.3 -240.03,-39.2 -281.88,-61.4" style="fill:#f7cc7f;fill-opacity:1;fill-rule:nonzero;stroke:none" id="path106"/><path d="m 9583.4,14165.5 c -115.16,-111.4 -132.02,-91.7 -177.49,-159.9 -20.8,-31.2 13.5,-80.8 49.71,-74.2 46.46,8.5 58.94,16.4 119.51,64.4 35.19,27.9 68.83,57.7 101.17,88.9 23.96,23.1 17.5,66.4 -6.04,86.9 -26.89,23.3 -62.9,17.1 -86.86,-6.1 v 0" style="fill:#f7cc7f;fill-opacity:1;fill-rule:nonzero;stroke:none" id="path108"/><path d="m 7745.57,14399.1 200.28,132.7 -78.44,159.6 193.06,137.8 -52.31,166 131.65,122 -51.67,50.1 -176.08,-163.3 49.57,-157.2 -200.84,-143.4 77.15,-157 -181.49,-120.3 89.12,-27" style="fill:#86b1f2;fill-opacity:1;fill-rule:nonzero;stroke:none" id="path110"/><path d="m 25776.6,13220.3 -240.2,-6.8 -17.8,-177 -236.7,-15 -43.3,-168.5 -176.3,-34 17.4,-69.8 235.8,45.5 41,159.7 246.3,15.5 17.5,174.1 217.6,6.2 -61.3,70.1" style="fill:#f7cc7f;fill-opacity:1;fill-rule:nonzero;stroke:none" id="path112"/><path d="m 6298.75,14525.1 c 0,0 73.47,82.3 201.75,69.9 114.37,-11 184.42,-109.6 174.2,-215.4 -11.84,-122.6 -133.28,-257.2 -424.39,-356.3 -266.77,153 -360.23,308.4 -348.4,430.9 10.23,105.9 97.83,189.2 212.2,178.1 128.28,-12.4 184.64,-107.2 184.64,-107.2" style="fill:#f48c7f;fill-opacity:1;fill-rule:nonzero;stroke:none" id="path114"/><path d="m 5348.55,14568 c 109.36,-28.7 198.74,-46.3 287.38,-59.4 29.23,-4.3 78.65,-20.5 102.6,1.6 12.45,11.5 16.45,27.1 6.66,42.1 -17.93,27.5 -63.37,24.4 -92.83,28.8 -89.78,13.3 -190.74,32.7 -291.63,58.1 -18.92,4.8 -38.58,-11.3 -41.69,-29.5 -3.54,-20.6 10.59,-36.7 29.51,-41.7 v 0" style="fill:#f48c7f;fill-opacity:1;fill-rule:nonzero;stroke:none" id="path116"/><path d="m 6812.9,14114.5 c 42.84,-7.1 85.8,-13.4 128.74,-19.8 41.08,-6.2 88.56,-20.6 129.57,-12.4 30.25,6 38.62,43.7 10.01,59.1 -36.99,19.9 -85.93,19.9 -127.15,26 -42.98,6.3 -85.93,12.7 -128.99,18.3 -46.01,6.1 -58.22,-63.5 -12.18,-71.2 v 0" style="fill:#f48c7f;fill-opacity:1;fill-rule:nonzero;stroke:none" id="path118"/><path d="m 5660.03,13946.3 c 67.53,82.2 137.37,100.2 192.74,127.3 29.6,14.5 20.76,56.3 -12.86,56.2 -92.12,-0.6 -180.67,-69.7 -235.71,-138.2 -28.98,-36.1 26.38,-81.2 55.83,-45.3 v 0" style="fill:#f48c7f;fill-opacity:1;fill-rule:nonzero;stroke:none" id="path120"/><path d="m 6120.64,13644.6 c 5.03,44.7 18.33,87 40.94,125.9 13.84,23.8 75.71,86.6 27.28,107.5 -45.6,19.7 -83,-54.5 -99.34,-85.7 -21.88,-41.9 -35.54,-88.5 -40.38,-135.4 -4.76,-46.2 66.25,-58.8 71.5,-12.3 v 0" style="fill:#f48c7f;fill-opacity:1;fill-rule:nonzero;stroke:none" id="path122"/><path d="m 6525.71,13859.6 c 21.23,-21 42.45,-41.9 63.68,-62.9 21.18,-20.9 40.18,-49.5 72.58,-47.9 18.23,0.9 27.83,17.6 28.24,33.9 0.73,29.5 -34.72,52.4 -54.17,71.4 -21.34,20.8 -42.68,41.6 -64.02,62.5 -14.2,13.8 -39.96,9 -51.65,-5.4 -13.49,-16.6 -8.82,-37.7 5.34,-51.6 v 0" style="fill:#f48c7f;fill-opacity:1;fill-rule:nonzero;stroke:none" id="path124"/><path d="m 6043.57,14833.2 c -57.76,233.2 -55.81,234 -71.46,254.9 -16.04,21.3 -52.49,14 -56.75,-13.3 -4.21,-27 -3.04,-22.6 58.64,-267.8 4.91,-19.5 30.58,-28.2 47.87,-21.7 20.62,7.8 26.55,28.3 21.7,47.9 v 0" style="fill:#f48c7f;fill-opacity:1;fill-rule:nonzero;stroke:none" id="path126"/><path d="m 6435.54,14775.9 c 19.83,34.3 35.78,70.3 47.89,108 11.25,35 33.21,87.2 3.66,117.3 -6.35,6.4 -19.78,8.3 -27.83,4.5 -33.63,-16 -34.74,-65.9 -45.25,-98.2 -11.47,-35.1 -26.71,-69.1 -43.98,-101.8 -9.07,-17.2 0.96,-40 17.9,-47.7 19.15,-8.6 37.84,1.1 47.61,17.9 v 0" style="fill:#f48c7f;fill-opacity:1;fill-rule:nonzero;stroke:none" id="path128"/><path d="m 6982.79,14655.8 c 8.96,15.7 -2.08,33.6 -15.58,41.5 -27.79,16.2 -70.99,-6.6 -98.07,-17.5 -31.54,-12.6 -61.57,-28.4 -90.65,-45.9 -16.78,-10.1 -18.82,-35.8 -8.02,-50.7 12.65,-17.4 33.49,-17.5 50.67,-8 112.21,62.4 139.57,41.7 161.65,80.6" style="fill:#f48c7f;fill-opacity:1;fill-rule:nonzero;stroke:none" id="path130"/><path d="m 12270.3,14099.7 -371.5,8 -138,352.5 92.2,36.2 114,-291 383.8,-8.3 90.1,-420.1 255.8,26 1.8,-99.4 -335.9,-34.1 -92.3,430.2" style="fill:#50bfa5;fill-opacity:1;fill-rule:nonzero;stroke:none" id="path132"/><path d="m 14697.1,13394.4 c -26.1,-205.4 187.8,-368.4 378,-355.5 210.2,14.2 388.6,186.6 419.3,393.2 33.3,223.7 -101.1,402.5 -309,418.9 -202.3,16 -331.8,-164.1 -273.3,-345.9 41.9,-130.3 160.8,-178.9 220.8,-143 46.7,28.1 43.8,98.7 -12.7,111.2 -22.7,5 -46,-7.6 -58.1,-25 -49.5,19.6 -96.6,109.8 -64.6,207.1 40.8,124.2 198,131.4 295.5,73.4 124.3,-73.8 143.8,-232.7 98.2,-359.3 -47.8,-132.9 -178.4,-237.6 -320.5,-247.7 -161,-11.4 -302.7,112 -315.5,272.4 -3.1,37.8 -53.5,36.9 -58.1,0.2" style="fill:#86b1f2;fill-opacity:1;fill-rule:nonzero;stroke:none" id="path134"/><path d="m 20513.3,14630.1 c -20,206 -264.7,317.6 -447.3,262.9 -201.9,-60.4 -337.7,-268.1 -321.9,-476.4 17.1,-225.4 187.8,-370.1 394.1,-340 200.9,29.2 287.2,233.5 190,397.8 -69.7,117.9 -196.5,138.9 -247,90.6 -39.3,-37.7 -20.9,-106 37,-105.7 23.2,0.2 43.2,17.7 51.1,37.3 52.6,-8.2 118.5,-85.6 108.9,-187.6 -12.3,-130.2 -164,-172 -272,-137.1 -137.4,44.5 -191.7,195.1 -175.3,328.6 17.2,140.3 121.3,271.3 257.7,312.6 154.5,46.8 320,-42.2 368.1,-195.7 11.3,-36.3 60.2,-24.2 56.6,12.7" style="fill:#86b1f2;fill-opacity:1;fill-rule:nonzero;stroke:none" id="path136"/><path d="m 6802.32,5702.9 c 0,0 22.42,-193.1 22.42,-225.9 0,-32.8 0,-32.8 0,-32.8 l -16.05,-33.3 -6.37,-13.2 115.53,-162.1 c 0,0 463.82,-6.9 474.16,-6.9 10.35,0 -62.07,112.1 -62.07,112.1 0,0 -153.46,115.5 -181.04,196.5 -27.59,81.1 23.42,250.1 23.42,250.1 l -370,-84.5" style="fill:#f7a491;fill-opacity:1;fill-rule:nonzero;stroke:none" id="path138"/><path d="m 4566.58,6858.4 c 0,0 -165.19,-102.5 -190.85,-122.9 -25.66,-20.3 -25.66,-20.3 -25.66,-20.3 l -16.12,-33.3 -6.4,-13.2 -198.77,-10.3 c 0,0 -293.78,359 -300.21,367.1 -6.43,8.1 84.51,-12.2 84.51,-12.2 0,0 185.43,-25.1 266.06,3.7 80.63,28.8 243.73,189.4 243.73,189.4 l 143.71,-348" style="fill:#f7a491;fill-opacity:1;fill-rule:nonzero;stroke:none" id="path140"/><path d="m 6067.79,8670.3 -1779.42,-1515.6 274.16,-388 c 0,0 1828.56,1135.4 1924.26,1148.4 95.69,12.9 173.28,-31.1 191.39,-100.9 18.1,-69.8 64.16,-2165.1 64.16,-2165.1 h 475.09 l 247.73,2638 -1397.37,383.2" style="fill:#50bfa5;fill-opacity:1;fill-rule:nonzero;stroke:none" id="path142"/><path d="m 8631.4,10831.9 c 131.64,86.3 440.93,418.2 545.68,531.2 1.13,13.3 11.12,90 95.35,187.6 59.51,68.9 104.57,226.1 143.59,181.5 39.02,-44.5 -57.8,-169.4 -13.48,-170.2 44.33,-0.9 264.38,246.5 299.75,206.1 35.36,-40.4 -188.09,-260.3 -148.43,-261 39.66,-0.7 221.04,221.9 271.04,164.8 49.99,-57 -237.74,-242.1 -210.92,-272.8 26.83,-30.6 205.14,90.8 245.38,44.8 40.24,-45.9 -251.49,-154.2 -228.16,-154.6 23.33,-0.5 191.65,4.1 192.91,-28.3 1.41,-36.6 -425.85,-93.7 -478.18,-157.1 v 0 c -111.64,-177.7 -310.36,-502.4 -511.6,-644.9 -246.22,-174.3 -815.28,-544 -815.28,-544 l -282.65,365.2 c 0,0 738.88,449.4 895,551.7" style="fill:#f7a491;fill-opacity:1;fill-rule:nonzero;stroke:none" id="path144"/><path d="m 9402.57,11483.4 c 10.94,-21.6 15.64,-45 17.18,-68.7 -0.85,-3.8 9.56,-80.2 -55.58,-138.2 25.37,47.2 53.33,99.7 38.4,206.9" style="fill:#f48c7f;fill-opacity:1;fill-rule:nonzero;stroke:none" id="path146"/><path d="m 6022.77,11231.4 c -104.49,117.8 -316.23,519 -387.79,655.4 2.39,13.1 12.82,89.8 -42.98,206 -39.42,82.1 -41.79,245.6 -91.11,212.8 -49.32,-32.8 11.47,-178.7 -31.51,-167.9 -43,10.8 -190.73,307.1 -235.42,277.4 -44.7,-29.8 113.48,-300.4 75.01,-290.7 -38.47,9.6 -155.31,272 -218.49,229.9 -63.19,-42 166.13,-295.9 132.23,-318.4 -33.91,-22.6 -174.27,141.2 -225.13,107.4 -50.86,-33.9 202.41,-214.7 179.78,-209 -22.63,5.7 -183.91,54.1 -193.59,23.2 -10.94,-35 386.53,-201.8 420.46,-276.7 v 0 c 61.28,-200.8 168.17,-566.1 325.15,-756.2 192.08,-232.7 644.65,-738.3 644.65,-738.3 l 368.31,278.5 c 0,0 -595.64,627 -719.57,766.6" style="fill:#f7a491;fill-opacity:1;fill-rule:nonzero;stroke:none" id="path148"/><path d="m 5448.79,12061.9 c -16.2,-18 -26.87,-39.4 -34.53,-61.8 -0.19,-3.9 -30.2,-74.9 17.51,-147.9 -12.14,52.2 -25.42,110.1 17.02,209.7" style="fill:#f48c7f;fill-opacity:1;fill-rule:nonzero;stroke:none" id="path150"/><path d="m 6809.22,10399.7 v 0 c 53.6,80.1 145.87,125.4 241.98,118.9 282.53,-19.2 855.47,-64.5 909.82,-118.9 72.41,-72.4 289.67,-544.8 82.76,-1207 -206.91,-662.1 -320.71,-593.1 -489.69,-593.1 -168.97,0 -965.57,375.9 -965.57,375.9 l 220.7,1424.2" style="fill:#355389;fill-opacity:1;fill-rule:nonzero;stroke:none" id="path152"/><path d="m 6321.26,10961.8 -332.21,-433.3 412.39,-613.5 c 0,0 -38.8,-455.9 -98.29,-598.1 -59.48,-142.3 -403.47,-726.8 -403.47,-726.8 0,0 835.4,-512.1 1652.69,-437.1 0,0 230.19,1184.6 294.85,1298.4 64.66,113.8 687.97,677.6 687.97,677.6 l -302.61,488.9 -522.44,-289.7 c 0,0 -954.94,154.3 -1000.93,200.3 -45.98,45.9 -387.95,433.3 -387.95,433.3" style="fill:#f7cc7f;fill-opacity:1;fill-rule:nonzero;stroke:none" id="path154"/><path d="m 7398.91,11848.1 c 0,0 -322.43,170.7 -432.79,-112.1 0,0 -289.66,29.3 -239.66,-270.7 0,0 -291.4,-146.6 -106.91,-524.2 0,0 -81.03,-355.2 334.5,-377.6 0,0 62.08,-125.8 251.75,-96.5 189.66,29.3 237.94,79.3 237.94,79.3 0,0 336.23,-98.3 437.96,205.2 0,0 231.05,55.1 75.87,351.7 0,0 201.73,384.5 -153.46,500 0,0 -41.39,393.2 -405.2,244.9" style="fill:#f47458;fill-opacity:1;fill-rule:nonzero;stroke:none" id="path156"/><path d="m 7354.81,9329.1 c -33.19,-205.3 -226.5,-344.8 -431.77,-311.5 -205.27,33.2 -344.76,226.5 -311.58,431.9 33.2,205.2 226.51,344.7 431.78,311.5 205.27,-33.2 344.76,-226.6 311.57,-431.9" style="fill:#fae0b2;fill-opacity:1;fill-rule:nonzero;stroke:none" id="path158"/><path d="m 6774.9,9362.6 c -17.75,-109.8 56.84,-213.2 166.58,-230.9 109.75,-17.8 213.11,56.8 230.85,166.5 l -397.43,64.4" style="fill:#efefef;fill-opacity:1;fill-rule:nonzero;stroke:none" id="path160"/><path d="m 7529.15,11015.1 c -26.2,-73.1 -7.38,-146.7 42.04,-164.4 49.41,-17.7 110.71,27.2 136.92,100.3 26.2,73.1 7.38,146.7 -42.04,164.4 -49.41,17.7 -110.71,-27.2 -136.92,-100.3" style="fill:#f7a491;fill-opacity:1;fill-rule:nonzero;stroke:none" id="path162"/><path d="m 6659.46,11194.6 c -3.67,-77.6 35.86,-142.5 88.3,-145 52.44,-2.4 97.92,58.4 101.59,136 3.67,77.6 -35.87,142.5 -88.31,145 -52.43,2.5 -97.91,-58.4 -101.58,-136" style="fill:#f7a491;fill-opacity:1;fill-rule:nonzero;stroke:none" id="path164"/><path d="m 7028.2,10680.8 c 0,-5.1 -41.88,-185.1 -64.11,-280.3 -8.28,-35.5 9.68,-71.8 42.85,-87 88.65,-40.4 263,-96.9 383.46,12.2 10.98,10 16.88,24.4 16.38,39.2 l -14.77,429.7 -363.81,-113.8" style="fill:#f7a491;fill-opacity:1;fill-rule:nonzero;stroke:none" id="path166"/><path d="m 7005.75,10580 c 93.81,-47.3 211.83,-48.3 344.17,29.3 16.76,9.8 32.53,20.3 47.38,31.3 l -5.29,154 -363.81,-113.8 c 0,-2.5 -9.81,-45.9 -22.45,-100.8" style="fill:#f48c7f;fill-opacity:1;fill-rule:nonzero;stroke:none" id="path168"/><path d="m 7286.21,11672.8 c 0,0 158.77,-41.9 252.07,-196.4 93.3,-154.5 144.82,-601.1 -188.36,-796.4 -333.18,-195.3 -575.6,107.2 -569.29,393.3 6.3,286.2 133.5,652 505.58,599.5" style="fill:#f7a491;fill-opacity:1;fill-rule:nonzero;stroke:none" id="path170"/><path d="m 6742.57,10513.5 c -153.39,-116 -313.98,-710.4 -374.76,-865.6 l -48.95,-285 624.2,1102.6 c 0,0 -167.46,73 -200.49,48" style="fill:#466eb6;fill-opacity:1;fill-rule:nonzero;stroke:none" id="path172"/><path d="m 7500.39,10363.1 c 0,0 -18.72,-732.4 36.46,-984.1 55.18,-251.8 199.55,-339.8 199.55,-339.8 l 70.97,292.9 c 0,0 -70.97,646.9 -97.23,996.1 -3.99,53 -209.75,34.9 -209.75,34.9" style="fill:#466eb6;fill-opacity:1;fill-rule:nonzero;stroke:none" id="path174"/><path d="m 6717.83,5117 c -70.82,9 51.51,254.6 90.86,293.9 l 521.25,-70.1 c 0,0 250.88,-116.4 310.37,-175.9 14.12,-14.1 15.96,-38.8 -45.27,-47.9 -196.71,-29.3 -720.07,-19.9 -877.21,0" style="fill:#13375b;fill-opacity:1;fill-rule:nonzero;stroke:none" id="path176"/><path d="m 4155.1,6424.1 c 61.19,-36.7 172.49,202.5 178.85,257.8 l -420.87,331.4 c 0,0 -324.75,93.1 -390.27,27.6 -59.48,-59.5 493.39,-533.3 632.29,-616.8" style="fill:#13375b;fill-opacity:1;fill-rule:nonzero;stroke:none" id="path178"/><path d="m 13943.7,15231.1 -302.6,-389.7 651.7,-114.6 z" style="fill:#96d9c9;fill-opacity:1;fill-rule:nonzero;stroke:none" id="path180"/><path d="m 16184.4,15041.6 750,-1029.3 496.6,543.1 z" style="fill:#466eb6;fill-opacity:1;fill-rule:nonzero;stroke:none" id="path182"/><path d="m 17498.2,14839.9 -67.2,-284.5 -1246.6,486.2 z" style="fill:#9bc1f9;fill-opacity:1;fill-rule:nonzero;stroke:none" id="path184"/><path d="m 17431,14446.8 -1246.6,594.8 1158.6,-1029.3 z" style="fill:#9bc1f9;fill-opacity:1;fill-rule:nonzero;stroke:none" id="path186"/><path d="m 17366.3,13935 c 0,-0.1 0,-0.2 0,-0.3 0,0.1 0,0.2 0,0.3 z m 821.9,-721.8 c -9.2,0.9 -228.3,23.4 -506,196.3 -278.8,173.6 -383.1,476.5 -383.1,525.2 0,18.5 15,33.6 33.6,33.6 18.4,0 33.3,-14.7 33.6,-33 3,-32.4 92.1,-307.2 351.4,-468.7 263.3,-163.9 474.8,-186.2 476.9,-186.4 18.5,-1.9 32,-18.3 30.2,-36.8 -1.8,-18.4 -18.1,-32 -36.6,-30.2" style="fill:#f7cc7f;fill-opacity:1;fill-rule:nonzero;stroke:none" id="path188"/><path d="m 19550.7,12908.7 c -388.6,78 -760.3,221.4 -1104.9,426.5 -283.8,168.9 -512.6,426.4 -802.1,569.3 -16.6,8.2 -23.5,28.4 -15.3,45 8.3,16.7 28.4,23.5 45.1,15.3 299.6,-148 526.7,-405.2 806.7,-571.8 338,-201.2 702.6,-341.9 1083.8,-418.4 140,-28.1 306,-38.3 493.3,-30.5 18.6,0.7 34.3,-13.7 35,-32.2 0.8,-18.6 -13.6,-34.3 -32.2,-35 -166.3,-7 -345.4,-1.1 -509.4,31.8" style="fill:#f7cc7f;fill-opacity:1;fill-rule:nonzero;stroke:none" id="path190"/><path d="m 11166,10399.7 c 16.8,1.1 143.5,-203.4 222.8,-517.3 79.3,-313.8 248.3,-893.1 248.3,-893.1 0,0 274.2,-553.5 348.3,-627.6 74.1,-74.2 146,2.5 220.7,-20.7 23.1,-7.2 94.2,-69 94.2,-69 0,0 128.2,-277.6 109.3,-296.6 -19,-18.9 -217.3,-72.4 -355.2,-27.6 -138,44.9 -779.4,796.6 -779.4,796.6 0,0 -522.8,1627.5 -109,1655.3" style="fill:#f48c7f;fill-opacity:1;fill-rule:nonzero;stroke:none" id="path192"/><path d="m 13671.7,10150 -62.1,64.4 c 0,0 -113.8,-204.4 -244.8,-494 -131,-289.7 -288,-646.6 -341.4,-700.1 -53.5,-53.4 -503.5,-672.3 -639.7,-732.7 -136.2,-60.3 -94.1,-33.9 -203.5,-20.8 -82.1,9.9 -73.1,-49.6 -19.7,-77.2 14.4,-7.4 30.8,-12.3 63.6,-35.6 65.1,-46.2 120.8,-111.8 161.6,-150 15.8,-14.8 -17.2,-41.8 -35.7,-23.3 -19.2,19.2 -84,119.3 -111.1,119.3 -27.2,0 -9.1,-68.5 2.6,-90.5 11.6,-22 -14.3,-15.5 -37.6,38.8 -23.2,54.3 -40,108.6 -73.7,100.9 -27.1,-6.3 -10.5,-81.4 -3,-110.3 -7.8,27.5 -29.3,96 -50,96 -25.8,0 -37.5,-2.6 -37.5,-53.6 0,-51.1 18.1,-105.9 77.6,-150.9 59.5,-45.1 226,-15 294.5,12.3 46.8,18.6 93.3,94.5 140.1,119.8 209.2,112.9 424.2,247.6 690.5,602.6 325.9,434.5 453,822.5 453,822.5 l -23.7,662.4" style="fill:#f4c0b8;fill-opacity:1;fill-rule:nonzero;stroke:none" id="path194"/><path d="m 13551,5220.1 c 0,0 -34.5,144.8 0,320.7 34.5,175.9 220.7,1072.5 220.7,1258.7 0,186.2 89.7,458.6 89.7,458.6 l -548.3,138 -55.2,-534.5 c 0,0 -29.3,-1246.7 -79.3,-1296.7 -50,-50 -261.5,-123.8 -327.6,-123.8 -74.1,0 -191.4,-5 -191.4,-42.3 0,-37.3 10.3,-61.5 10.3,-61.5 l 881.1,-117.2" style="fill:#f4c0b8;fill-opacity:1;fill-rule:nonzero;stroke:none" id="path196"/><path d="m 14203.9,7336.8 67.8,-461.4 c 0,0 161.4,-1352.3 124.2,-1389.5 -37.2,-37.2 -206.3,-146.2 -283.9,-154.8 -77.6,-8.6 -186.8,-61 -186.8,-102.4 0,-83.6 872.4,-15.7 872.4,-15.7 0,0 27.6,62.3 0,153.7 -27.5,91.3 -27.5,220.7 -27.5,241.3 0,20.7 1.7,3.5 1.7,36.2 0,32.8 0,43.2 0,43.2 0,0 105.2,644.8 -6.9,1051.8 l -39.7,789.7 -521.3,-192.1" style="fill:#f4c0b8;fill-opacity:1;fill-rule:nonzero;stroke:none" id="path198"/><path d="m 10575.8,11848.9 c 0,0 -201.7,2.4 -341.4,-76.4 -139.1,-78.5 -176.5,-265.8 -179.1,-412.2 -3.4,-189.1 58.6,-379.4 176.5,-527.8 118.1,-148.6 325.9,-215.3 325.9,-215.3 l 584.8,372.7 c 0,0 69.6,173.7 20.4,406.4 -49.1,232.8 -36.2,488.9 -587.1,452.6" style="fill:#184655;fill-opacity:1;fill-rule:nonzero;stroke:none" id="path200"/><path d="m 11561.2,5820.6 c 0,0 193.2,-277.6 206.9,-315.6 13.8,-37.9 108.7,-289.6 108.7,-289.6 l 741.4,360.3 -567.3,172.5 -113.8,248.3 -375.9,-175.9" style="fill:#f48c7f;fill-opacity:1;fill-rule:nonzero;stroke:none" id="path202"/><path d="M 10588.8,7785.8 11194,6523.6 11592.3,5727 c 0,0 353.4,136.2 441.4,224.2 l -286.2,1003.5 -325.9,1162.1 -685.1,62.3 -147.7,-393.3" style="fill:#355389;fill-opacity:1;fill-rule:nonzero;stroke:none" id="path204"/><path d="m 10018,5692.5 c 0,0 27.6,-186.2 27.6,-198.3 0,-12 -41.4,-191.3 -48.26,-239.6 -6.89,-48.3 0,-86.2 0,-86.2 l 702.66,168.1 c 0,0 -104.3,68.1 -197.5,119.8 -93.1,51.7 -106.9,298.3 -106.9,298.3 l -377.6,-62.1" style="fill:#f48c7f;fill-opacity:1;fill-rule:nonzero;stroke:none" id="path206"/><path d="m 9919.76,8116.8 c 0,0 120.34,-757 103.44,-1010.4 -24.26,-363.7 -120.69,-503.5 -51.72,-1457.3 h 489.72 c 0,0 34.5,512.4 110.3,909 75.9,396.6 241.4,1062.1 241.4,1062.1 l 272.4,614.1 -1165.54,-117.5" style="fill:#86b1f2;fill-opacity:1;fill-rule:nonzero;stroke:none" id="path208"/><path d="m 10203.1,10963.1 c 23.6,-74 83.3,-121 133.3,-105.1 50,16 71.4,88.9 47.8,162.9 -23.7,74 -83.3,121 -133.4,105 -50,-16 -71.3,-88.9 -47.7,-162.8" style="fill:#f48c7f;fill-opacity:1;fill-rule:nonzero;stroke:none" id="path210"/><path d="m 11034.6,11121 c 6.6,-77.4 54.3,-136.5 106.7,-132.1 52.3,4.5 89.3,70.8 82.8,148.2 -6.6,77.4 -54.4,136.5 -106.7,132.1 -52.3,-4.5 -89.3,-70.8 -82.8,-148.2" style="fill:#f48c7f;fill-opacity:1;fill-rule:nonzero;stroke:none" id="path212"/><path d="m 18222,10884.2 c 110.7,119.8 343.6,618.4 422.4,760 -1.7,14.2 -8,96.7 54,217.6 43.8,85.4 54.9,260 102.4,222.1 47.5,-37.9 -21,-190.2 22.5,-181.1 43.5,9 206.9,317.1 249.9,282.7 43.1,-34.3 -129.4,-314.4 -90.5,-306.2 39,8.1 169.7,281.7 230.6,233.1 60.8,-48.5 -181.8,-306.6 -149.2,-332.6 32.7,-26.1 181.6,140.8 230.6,101.8 48.9,-39.1 -213.7,-217.7 -190.8,-212.9 22.9,4.7 186.6,47.2 194.6,13.6 9,-38 -396.8,-193.4 -434.7,-271.4 v 0 c -72,-211 -198.4,-595.2 -365.3,-789.3 -204.3,-237.5 -792.1,-896.1 -792.1,-896.1 l -244.1,463.1 c 0,0 628.5,553.6 759.7,695.6" style="fill:#966259;fill-opacity:1;fill-rule:nonzero;stroke:none" id="path214"/><path d="m 18839.7,11820.6 c 15.3,-20.2 24.8,-43.7 31.2,-68 0,-4.2 26.1,-81.8 -25.4,-157 14.9,55 31.3,116.2 -5.8,225" style="fill:#6b4744;fill-opacity:1;fill-rule:nonzero;stroke:none" id="path216"/><path d="m 9965.93,10262.4 c 0,0 56.87,-1467.9 0,-1742.1 -56.9,-274.2 -83.02,-452 -83.02,-452 0,0 786.49,-153.2 1541.69,48.5 0,0 -113.8,512.1 -165.5,1044.9 -51.7,532.8 -93.1,1238 -93.1,1238 0,0 -286.3,21.4 -506.9,1.1 -501.4,-45.9 -693.17,-138.4 -693.17,-138.4" style="fill:#fae0b2;fill-opacity:1;fill-rule:nonzero;stroke:none" id="path218"/><path d="m 10433.6,10773 -22.2,-401.6 c 0,0 37.7,-221.7 257.5,-234.6 219.9,-13 155.2,460.3 155.2,460.3 l -12.9,175.9 h -377.6" style="fill:#f48c7f;fill-opacity:1;fill-rule:nonzero;stroke:none" id="path220"/><path d="m 10817.1,10470.4 c 5.2,0 10.5,0.1 15.7,0.4 -1.2,71.7 -8.7,126.3 -8.7,126.3 l -12.9,175.9 h -377.6 l -3.3,-60.3 c 47.3,-80.6 186.7,-242.3 386.8,-242.3" style="fill:#f27a6a;fill-opacity:1;fill-rule:nonzero;stroke:none" id="path222"/><path d="m 10010.7,5402.4 c 0,0 25.9,25.9 116.4,18.1 90.5,-7.7 544.4,-58.2 563.8,-58.2 19.4,0 279.1,-197.2 290.8,-232.9 11.6,-35.8 -561.1,-12.4 -561.1,-12.4 h -435.97 c 0,0 -41.17,130.2 26.07,285.4" style="fill:#3c8f7c;fill-opacity:1;fill-rule:nonzero;stroke:none" id="path224"/><path d="m 11809.5,5411.9 c 0,0 -26.5,-17.8 -26.5,-42 0,-16 27,-125 58.3,-202.5 18.2,-45.2 71.9,-64.3 114.6,-40.8 l 786.4,433.6 c 0,0 57.4,49.7 -313.6,73.1 l -619.2,-221.4" style="fill:#3c8f7c;fill-opacity:1;fill-rule:nonzero;stroke:none" id="path226"/><path d="m 9965.93,10262.4 c 0,0 -111.69,-48.9 -177.22,-200.6 -65.52,-151.8 -275.88,-838 -134.49,-1248.4 0,0 63.7,-312 391.28,-525.8 327.6,-213.8 898.9,-265.2 931.2,-232.9 32.3,32.4 33.6,88.4 33.6,124.4 0,36 75,54.1 75,103.2 0,49.2 -126.7,57.8 -272.4,57.8 0,0 -25.8,2.6 6.1,26.7 31.8,24.2 72.4,54.4 65.5,100 -6.9,45.7 -36.7,43.6 -64.7,15.6 -28,-28.1 -120.7,-103.5 -194.8,-81.9 -74.2,21.5 -512.1,381 -584.6,494.8 0,0 29,1342.6 -74.47,1367.1" style="fill:#f48c7f;fill-opacity:1;fill-rule:nonzero;stroke:none" id="path228"/><path d="m 13609.6,10214.4 c 0,0 236.1,131 486.6,160.3 250.6,29.4 610.1,-64.6 610.1,-64.6 l 207.2,-2992.9 c 0,0 -931,-442.2 -1629.3,0 0,0 187.5,1256.7 187.5,1433.3 0,176.7 0,176.7 0,176.7 l 137.9,1287.2" style="fill:#50bfa5;fill-opacity:1;fill-rule:nonzero;stroke:none" id="path230"/><path d="m 12660,5372.7 c -24.9,2.8 -48.3,-11.8 -56.7,-35.4 -9.7,-27.1 -5.4,-51.3 14.9,-71.6 37.1,-37.1 684.1,-143.1 910,-138.1 23.9,0.6 58.2,71.8 22.8,92.5 -55.2,32.3 -720.4,133.3 -891,152.6" style="fill:#13375b;fill-opacity:1;fill-rule:nonzero;stroke:none" id="path232"/><path d="m 12851,5441.1 53.4,-108.9 119,-32.8 c 0,0 -55.2,194.8 -103.5,186.2 -48.2,-8.6 -68.9,-44.5 -68.9,-44.5" style="fill:#13375b;fill-opacity:1;fill-rule:nonzero;stroke:none" id="path234"/><path d="m 13925.1,5221.7 c -22.7,0.1 -43.1,-14.3 -50.2,-35.8 -5.6,-17.4 -7.5,-37.3 5.4,-50.3 27.6,-27.6 954.2,-8.6 954.2,-8.6 0,0 22.4,68.9 -18,82.7 -26.6,9.2 -730.3,11.6 -891.4,12" style="fill:#13375b;fill-opacity:1;fill-rule:nonzero;stroke:none" id="path236"/><path d="m 14204.3,5370.2 c -8.3,15.1 -72.2,-1 -92.3,-39.1 l 82.2,-118 96.5,0.3 -86.4,156.8" style="fill:#13375b;fill-opacity:1;fill-rule:nonzero;stroke:none" id="path238"/><path d="m 16266.8,5968.4 c 0,0 -37.3,-324.2 -98,-465.5 -60.6,-141.4 -260.6,-230.7 -436.5,-265.4 -175.9,-34.6 -117.3,-62.3 -91.5,-88.1 25.8,-25.8 788.1,-43.2 922.6,-18.8 0,0 -51.7,265.4 -51.7,306.7 0,41.4 210.3,693.2 210.3,693.2 l -455.2,-162.1" style="fill:#966259;fill-opacity:1;fill-rule:nonzero;stroke:none" id="path240"/><path d="m 16563.4,5130.6 c 0,0 -10.5,54 -22.1,117.1 -147.1,-19.7 -483.5,14.7 -652.1,34.4 -51.6,-19.5 -114.3,-25.4 -165.9,-35.6 -175.9,-34.6 -162.7,-80.7 -118.6,-112.8 29.5,-21.5 824.2,-27.5 958.7,-3.1" style="fill:#f47458;fill-opacity:1;fill-rule:nonzero;stroke:none" id="path242"/><path d="m 17766.7,6044.3 c 0,0 -20.6,-398.3 22.1,-541.4 44,-147.5 106.9,-172.8 279.6,-220.8 169.6,-47.2 105.2,-122.6 79.5,-148.4 -25.8,-25.8 -619.2,-27.5 -753.7,-3.1 0,0 51.8,265.4 51.8,306.7 0,41.4 -62.9,711.3 -62.9,711.3 l 383.6,-104.3" style="fill:#966259;fill-opacity:1;fill-rule:nonzero;stroke:none" id="path244"/><path d="m 17394.2,5130.6 c 0,0 10.6,54 22.1,117.1 147.1,-19.7 483.6,14.7 652.1,34.4 58.3,-14.2 105.5,-25.8 156.9,-44.6 168.4,-61.5 153.4,-78 127.6,-103.8 -25.8,-25.8 -824.2,-27.5 -958.7,-3.1" style="fill:#f47458;fill-opacity:1;fill-rule:nonzero;stroke:none" id="path246"/><path d="m 14706.3,10310.1 c 0,0 -201.8,-238 -98.3,-636.3 103.4,-398.3 353.4,-1032.8 662.1,-1386 50,-57.2 165.5,-177.9 217.2,-212.4 51.8,-34.5 270.7,-58.6 270.7,-58.6 0,0 96.6,296.6 69,324.2 -27.6,27.6 -259.5,30.1 -322.4,93.1 -63,62.9 -674.2,1876 -798.3,1876" style="fill:#f4c0b8;fill-opacity:1;fill-rule:nonzero;stroke:none" id="path248"/><path d="m 16657.6,10315.2 c 0,0 -58.1,-36.2 -99.5,-143.1 -41.4,-106.9 -256.1,-986.3 -287.1,-1113.8 -24,-98.6 -241.7,-387.9 -349.7,-527.2 -31.9,-41.1 -56.4,-75.5 -71.9,-75.5 -94.8,0 -252.2,-52.6 -252.2,-91.9 0,-39.2 37.2,-43.4 99.2,-29.6 62.1,13.8 15.1,-53.5 -7.3,-75.9 -22.4,-22.4 -117.9,-150.2 -84.1,-184.1 33.8,-33.8 115.1,-57.3 153,-57.3 20.6,0 62.5,2.3 138.9,64.6 64.3,52.5 158.8,159.8 228.2,221.6 249.4,222.5 454.5,689.7 492.5,796.6 37.9,106.9 40,1215.6 40,1215.6" style="fill:#966259;fill-opacity:1;fill-rule:nonzero;stroke:none" id="path250"/><path d="m 15858.5,8233.2 c 0,0 25.8,-2.6 25.8,-53 0,-50.5 -43.9,-128 -73.7,-157.8 -29.7,-29.7 -302.1,42.6 -302.1,42.6 0,0 99.1,-2.5 132.9,39.5 15.2,18.8 43.8,106.7 72.3,106.7 28.4,0 -2.6,-119 -2.6,-119 0,0 54.3,156.5 82.7,156.5 28.4,0 31.1,-28.4 18.1,-76.3 -12.9,-47.8 29.1,74.6 46.6,60.8" style="fill:#f4c0b8;fill-opacity:1;fill-rule:nonzero;stroke:none" id="path252"/><path d="m 16077.3,5936.2 c 0,0 403.5,-108.6 861.2,-108.6 457.8,0 1357.8,232.7 1357.8,232.7 0,0 -248.3,600 -333.6,1060.4 -85.4,460.3 -147.4,1251.7 -147.4,1251.7 h -1365.8 l -85.4,-547.8 -286.8,-1888.4" style="fill:#466eb6;fill-opacity:1;fill-rule:nonzero;stroke:none" id="path254"/><path d="m 16657.6,10315.2 c 0,0 -89.2,-103.4 -89.2,-424.1 0,-320.7 -15.5,-801.8 -41.3,-967.3 -25.9,-165.6 -103.5,-576.8 -103.5,-576.8 0,0 227.6,-188.8 817.3,-137.1 589.7,51.8 620.7,131.1 620.7,131.1 0,0 -82.7,1332.8 -82.7,1472.5 0,139.6 -126.6,543.7 -126.6,543.7 0,0 -340.7,35.1 -495.9,23.2 -155.2,-11.9 -498.8,-65.2 -498.8,-65.2" style="fill:#fae0b2;fill-opacity:1;fill-rule:nonzero;stroke:none" id="path256"/><path d="m 16389.6,11574.1 c 0,0 -248.2,-70.4 -227.6,-325.1 18.9,-234.9 134.5,-223 134.5,-223 0,0 -84.5,-333 170.7,-429.6 240.6,-91 331,0 331,0 0,0 104.4,-276.5 461.3,-169.8 356.9,106.8 325,323.3 325,323.3 0,0 152,-59.8 327.9,219.5 175.9,279.3 75.5,480.5 -157.2,604.7 0,0 77.4,355.6 -278.4,412.5 -355.9,56.9 -443.2,-138.4 -443.2,-138.4 0,0 -63.3,218 -442.3,68 -248.3,-98.3 -201.7,-342.1 -201.7,-342.1" style="fill:#13375b;fill-opacity:1;fill-rule:nonzero;stroke:none" id="path258"/><path d="m 17372.8,11041 c -26.2,-73.1 -7.4,-146.8 42,-164.5 49.5,-17.7 110.8,27.2 137,100.3 26.2,73.1 7.4,146.8 -42.1,164.5 -49.4,17.7 -110.7,-27.2 -136.9,-100.3" style="fill:#966259;fill-opacity:1;fill-rule:nonzero;stroke:none" id="path260"/><path d="m 16563.7,10968.4 c 11.9,-76.7 63.7,-132.4 115.5,-124.3 51.9,8.1 84.3,76.9 72.3,153.6 -12,76.7 -63.7,132.4 -115.6,124.3 -51.9,-8.1 -84.2,-76.9 -72.2,-153.6" style="fill:#966259;fill-opacity:1;fill-rule:nonzero;stroke:none" id="path262"/><path d="m 16989.2,10632.5 13.7,-301.7 c 0,0 6.9,-117.3 129.4,-132.8 122.4,-15.5 234.5,79.2 234.5,174.1 0,12.1 -60.4,425.9 -60.4,425.9 l -317.2,-165.5" style="fill:#966259;fill-opacity:1;fill-rule:nonzero;stroke:none" id="path264"/><path d="m 17306.4,10798 -317.2,-165.5 4.9,-107.3 c 57.4,-0.4 142.4,4.1 210.6,44.8 57.3,34.2 89.2,77.6 114.9,137.4 -7.7,53 -13.2,90.6 -13.2,90.6" style="fill:#6b4744;fill-opacity:1;fill-rule:nonzero;stroke:none" id="path266"/><path d="m 12160.5,8274.8 c 0,0 77.3,-50 123.2,-39 45.9,11 23.3,34.5 1.7,56 -21.5,21.6 -79.3,49.2 -79.3,49.2 l -45.6,-66.2" style="fill:#f48c7f;fill-opacity:1;fill-rule:nonzero;stroke:none" id="path268"/><path d="m 10633,11638.2 c -125.2,-18.5 -216.8,-107.2 -283.4,-215.5 -131.9,-214.7 -24.6,-530.7 11.6,-603.1 36.2,-72.4 181,-258.7 395.7,-258.7 214.6,0 364.7,196.6 382.8,388 24.2,256.2 -44.4,575.6 -288.3,664.7 -66.5,24.2 -145.2,35.4 -218.4,24.6" style="fill:#f48c7f;fill-opacity:1;fill-rule:nonzero;stroke:none" id="path270"/><path d="m 14088.1,11631.7 c 0,0 -106,5.2 -225,-51.7 -119,-56.9 -243.1,-312.8 -243.1,-540.4 0,-138.5 -61.3,-195.7 -109.3,-219.2 -25.8,-12.6 -32.7,-46.1 -13.7,-67.6 46.9,-53.4 95.7,-111.9 157.3,-147.8 233.3,-135.7 468.4,-139.9 730.7,-91.8 211,38.7 410.1,133.7 559.8,289.5 28.2,29.3 20.5,77.7 -15.3,96.9 -49.6,26.6 -108,83.9 -130.1,207.1 -41.4,230.2 -126.8,636.2 -711.3,525" style="fill:#13375b;fill-opacity:1;fill-rule:nonzero;stroke:none" id="path272"/><path d="m 14404.3,11003.7 c -16.8,-75.8 11,-146.5 62.3,-157.9 51.2,-11.4 106.4,40.8 123.3,116.6 16.8,75.8 -11.1,146.5 -62.3,157.9 -51.2,11.4 -106.4,-40.8 -123.3,-116.6" style="fill:#f4c0b8;fill-opacity:1;fill-rule:nonzero;stroke:none" id="path274"/><path d="m 13646.2,11104.8 c 0,-77.7 42.5,-140.6 95,-140.6 52.5,0 95.1,62.9 95.1,140.6 0,77.6 -42.6,140.6 -95.1,140.6 -52.5,0 -95,-63 -95,-140.6" style="fill:#f4c0b8;fill-opacity:1;fill-rule:nonzero;stroke:none" id="path276"/><path d="m 13968.3,10604.9 -25.9,-355.2 c 0,0 12.1,-81 108.6,-98.3 96.6,-17.2 301.8,125.9 301.8,201.8 l -48.3,410.3 -336.2,-158.6" style="fill:#f4c0b8;fill-opacity:1;fill-rule:nonzero;stroke:none" id="path278"/><path d="m 13955.7,10431.6 c 152.5,-7.6 275.2,61.2 365.9,186.4 l -17.1,145.5 -336.2,-158.6 -12.6,-173.3" style="fill:#f7a491;fill-opacity:1;fill-rule:nonzero;stroke:none" id="path280"/><path d="m 13731.2,10923 c 23.3,-131.9 62.1,-364 269,-387.9 206.9,-23.9 362.1,87.9 460.4,289.6 98.2,201.8 75,468.2 20.6,600.1 -43.1,104.8 -229.4,99.8 -320.9,98.2 -306.7,-5.1 -480.6,-307.9 -429.1,-600" style="fill:#f4c0b8;fill-opacity:1;fill-rule:nonzero;stroke:none" id="path282"/><path d="m 14033.8,11565.3 c 0,0 -3.2,-169.6 137.9,-310.8 141.2,-141.2 425,-214.9 425,-214.9 l 33.7,-79.6 c 0,0 44.8,253.6 -62.1,422.5 -106.9,169 -534.5,182.8 -534.5,182.8" style="fill:#13375b;fill-opacity:1;fill-rule:nonzero;stroke:none" id="path284"/><path d="m 17152.2,11610.6 c 0,0 150.2,-42.8 240.1,-194.4 89.9,-151.6 144.2,-587 -167.3,-772.8 -311.6,-185.9 -519.8,112.5 -541.6,390.1 -25.8,328.4 117.4,633 468.8,577.1" style="fill:#966259;fill-opacity:1;fill-rule:nonzero;stroke:none" id="path286"/></g></g></svg>